<svg width="8" height="7" viewBox="0 0 8 7" fill="none" xmlns="http://www.w3.org/2000/svg">
<path d="M7.10316 1.62818C6.82848 1.74535 6.53712 1.82225 6.23878 1.85634C6.54954 1.67702 6.78814 1.39305 6.90049 1.0547C6.60508 1.22348 6.28188 1.3424 5.94485 1.40632C5.67032 1.12472 5.27922 0.94873 4.84634 0.94873C4.0152 0.94873 3.34134 1.59751 3.34134 2.39769C3.34134 2.51127 3.35467 2.62185 3.38031 2.72792C2.12956 2.66748 1.02065 2.09063 0.278367 1.21397C0.148851 1.42797 0.0746367 1.67691 0.0746367 1.94242C0.0746367 2.44514 0.340346 2.88863 0.744139 3.14849C0.505149 3.14128 0.271418 3.07913 0.0624587 2.96723C0.0623727 2.9733 0.0623727 2.97937 0.0623727 2.98546C0.0623727 3.68751 0.581126 4.27317 1.26957 4.40628C1.04795 4.46431 0.815496 4.4728 0.589951 4.43111C0.781446 5.00678 1.33725 5.42568 1.99578 5.43741C1.48072 5.82602 0.831791 6.05768 0.12673 6.05768C0.00523657 6.05768 -0.114537 6.05082 -0.232277 6.03743C0.433729 6.44856 1.22478 6.68844 2.07466 6.68844C4.84284 6.68844 6.35655 4.4805 6.35655 2.56573C6.35655 2.50288 6.35512 2.4404 6.3522 2.37827C6.64683 2.17319 6.90113 1.91919 7.10316 1.62818Z" fill="white"/>
</svg>
